<?xml version="1.0" encoding="utf-8"?>
<svg xmlns="http://www.w3.org/2000/svg" viewBox="0 0 500 500" xmlns:bx="https://boxy-svg.com" width="500px" height="500px"><defs><bx:export><bx:file format="svg"/></bx:export></defs><path fill="#2856AD" opacity="1.000000" stroke="none" d="M 212.756 126.806 C 212.439 125.074 212.121 123.343 211.754 121.341 C 201.566 116.129 191.007 110.727 180.447 105.324 C 180.532 105.008 180.617 104.691 180.702 104.375 C 189.133 104.375 197.564 104.375 206.24 104.375 C 212.036 90.271 217.882 76.047 224.23 60.6 C 225.349 63.81 226.085 65.689 226.663 67.616 C 229.469 76.972 232.411 86.293 234.92 95.729 C 235.869 99.298 237.517 100.457 241.089 100.238 C 244.685 100.017 248.322 100.467 251.935 101.166 C 249.494 102.764 247.057 103.82 244.151 104.847 C 241.89 105.15 240.109 105.543 238.308 105.806 C 230.402 106.962 229.329 106.238 226.947 98.492 C 225.353 93.306 223.689 88.141 221.899 82.47 C 217.76 92.535 213.849 102.048 209.703 112.13 C 212.828 113.872 215.943 115.609 219.188 117.419 C 218.135 119.521 217.071 121.643 216.033 123.794 C 216.06 123.824 216.034 123.749 215.688 123.693 C 215.079 124.018 214.815 124.401 214.38 124.912 C 213.724 125.629 213.24 126.217 212.756 126.806 Z" style="stroke-width: 1;"/><path fill="#FBB342" opacity="1.000000" stroke="none" d="M 245.923 105.527 C 248.359 104.471 250.796 103.415 253.514 102.182 C 256.03 101.736 258.264 101.466 260.497 101.196 C 260.246 100.868 259.996 100.54 259.745 100.211 C 238.908 118.48 218.071 136.749 197.234 155.018 C 197.004 154.925 196.775 154.832 196.546 154.74 C 199.886 146.508 203.226 138.277 206.727 129.648 C 209.731 132.929 211.624 130.73 213.763 127.893 C 214.542 126.868 215.026 126.28 216.056 125.588 C 216.846 125.123 217.091 124.761 217.336 124.4 C 217.336 124.4 217.362 124.475 217.685 124.521 C 227.313 118.22 236.618 111.874 245.923 105.527 Z" style="stroke-width: 1;"/><path fill="#2856AD" opacity="1.000000" stroke="none" d="M 251.378 154.825 C 242.256 148.453 233.424 142.303 224.586 136.149 C 229.652 129.239 230.687 128.961 239.276 132.081 C 238.736 129.634 237.61 127.213 237.888 124.965 C 238.121 123.09 239.999 121.418 241.732 118.76 C 246.082 131.037 250.007 142.038 253.773 153.093 C 253.899 153.462 252.406 154.383 251.378 154.825 Z" style="stroke-width: 1;"/></svg>